<svg width="19" height="16" viewBox="0 0 19 16" fill="none" xmlns="http://www.w3.org/2000/svg"><path d="M18.483 6.642a.834.834 0 0 0-.65-.309h-1.666V5.5a2.5 2.5 0 0 0-2.5-2.5H8.433l-.266-.833A2.5 2.5 0 0 0 5.8.5H2.833A2.5 2.5 0 0 0 .333 3v10a2.5 2.5 0 0 0 2.5 2.5h12a2.5 2.5 0 0 0 2.434-1.958l1.4-6.192a.834.834 0 0 0-.184-.708zM3.975 13.183a.833.833 0 0 1-.833.65h-.309A.833.833 0 0 1 2 13V3a.833.833 0 0 1 .833-.833H5.8a.833.833 0 0 1 .833.566l.45 1.367a.833.833 0 0 0 .75.567h5.834a.833.833 0 0 1 .833.833v.833H6.167a.833.833 0 0 0-.834.65l-1.358 6.2zm11.667 0a.833.833 0 0 1-.834.65h-9.3c.043-.092.074-.19.092-.291L6.833 8h10l-1.191 5.183z" fill="#585858"/></svg>