<svg xmlns="http://www.w3.org/2000/svg" width="512" height="512" viewBox="0 0 443.294 443.294"><path xmlns="http://www.w3.org/2000/svg" d="M277.059 332.471h27.706v-55.412h55.412v-27.706h-55.412v-55.412h-27.706v55.412h-55.412v27.706h55.412z" fill="#bdbdbd" data-original="#000000"/><path xmlns="http://www.w3.org/2000/svg" d="M415.588 83.118H213.53l-51.353-51.353a13.844 13.844 0 0 0-9.794-4.058H27.706C12.432 27.706 0 40.138 0 55.412v332.471c0 15.273 12.432 27.706 27.706 27.706h387.882c15.273 0 27.706-12.432 27.706-27.706V110.824c0-15.274-12.432-27.706-27.706-27.706zm0 304.764H27.706V55.412h118.94L198 106.765a13.844 13.844 0 0 0 9.794 4.058h207.794z" fill="#bdbdbd" data-original="#000000"/></svg>