<svg width="8" height="12" viewBox="0 0 8 12" fill="none" xmlns="http://www.w3.org/2000/svg"><path d="M1.667 4.667a1.333 1.333 0 1 0 0 2.666 1.333 1.333 0 0 0 0-2.666zm0 4.666a1.333 1.333 0 1 0 0 2.667 1.333 1.333 0 0 0 0-2.667zm4.666-6.666a1.333 1.333 0 1 0 0-2.667 1.333 1.333 0 0 0 0 2.667zM1.667 0a1.333 1.333 0 1 0 0 2.667 1.333 1.333 0 0 0 0-2.667zm4.666 9.333a1.333 1.333 0 1 0 0 2.667 1.333 1.333 0 0 0 0-2.667zm0-4.666a1.333 1.333 0 1 0 0 2.666 1.333 1.333 0 0 0 0-2.666z" fill="#A5A5A5"/></svg>