<svg width="18" height="18" viewBox="0 0 18 18" fill="none" xmlns="http://www.w3.org/2000/svg"><path d="M9 15.667H3.167a.833.833 0 0 1-.834-.834V3.167a.833.833 0 0 1 .833-.834h4.167v2.5a2.5 2.5 0 0 0 2.5 2.5h2.5v.834a.834.834 0 0 0 1.667 0V6.45a1.084 1.084 0 0 0-.05-.225V6.15a.89.89 0 0 0-.159-.233l-5-5a.892.892 0 0 0-.233-.159.267.267 0 0 0-.075 0 .733.733 0 0 0-.275-.091H3.166a2.5 2.5 0 0 0-2.5 2.5v11.666a2.5 2.5 0 0 0 2.5 2.5H9a.833.833 0 1 0 0-1.666zM9 3.508l2.158 2.159H9.833A.833.833 0 0 1 9 4.833V3.508zM4.833 5.667a.833.833 0 1 0 0 1.666h.833a.833.833 0 1 0 0-1.666h-.833zm12.259 10.241l-.976-.966a2.867 2.867 0 0 0-.45-3.442 2.908 2.908 0 0 0-5 2.075 2.883 2.883 0 0 0 4.275 2.542l.967.975a.832.832 0 0 0 1.184 0 .834.834 0 0 0 0-1.184zM14.45 14.45a1.283 1.283 0 0 1-1.758 0 1.25 1.25 0 0 1 .008-1.758c.222-.221.52-.35.833-.359a1.225 1.225 0 0 1 .917 2.117zM9.833 9h-5a.833.833 0 0 0 0 1.667h5a.833.833 0 0 0 0-1.667zm-1.667 5a.833.833 0 1 0 0-1.667H4.833a.833.833 0 1 0 0 1.667h3.333z" fill="#616161"/></svg>