<?xml version="1.0"?>
<svg xmlns="http://www.w3.org/2000/svg" xmlns:xlink="http://www.w3.org/1999/xlink" xmlns:svgjs="http://svgjs.com/svgjs" version="1.1" width="512" height="512" x="0" y="0" viewBox="0 0 443.294 443.294" style="enable-background:new 0 0 512 512" xml:space="preserve" class=""><g><path xmlns="http://www.w3.org/2000/svg" d="m277.059 332.471h27.706v-55.412h55.412v-27.706h-55.412v-55.412h-27.706v55.412h-55.412v27.706h55.412z" fill="#bdbdbd" data-original="#000000" style="" class=""/><path xmlns="http://www.w3.org/2000/svg" d="m415.588 83.118h-202.058l-51.353-51.353c-2.597-2.597-6.115-4.058-9.794-4.058h-124.677c-15.274-.001-27.706 12.431-27.706 27.705v332.471c0 15.273 12.432 27.706 27.706 27.706h387.882c15.273 0 27.706-12.432 27.706-27.706v-277.059c0-15.274-12.432-27.706-27.706-27.706zm0 304.764h-387.882v-332.47h118.94l51.354 51.353c2.597 2.597 6.115 4.058 9.794 4.058h207.794z" fill="#bdbdbd" data-original="#000000" style="" class=""/></g></svg>
