<svg width="12" height="10" viewBox="0 0 12 10" fill="none" xmlns="http://www.w3.org/2000/svg">
<path d="M11.5917 1.00837C11.5142 0.930263 11.4221 0.868267 11.3205 0.82596C11.219 0.783653 11.11 0.761871 11 0.761871C10.89 0.761871 10.7811 0.783653 10.6796 0.82596C10.578 0.868267 10.4858 0.930263 10.4084 1.00837L4.20004 7.22504L1.59171 4.60837C1.51127 4.53067 1.41632 4.46958 1.31227 4.42857C1.20823 4.38757 1.09713 4.36746 0.985308 4.3694C0.873491 4.37133 0.76315 4.39527 0.660584 4.43985C0.558019 4.48443 0.465238 4.54877 0.387539 4.6292C0.309841 4.70964 0.248746 4.80459 0.207742 4.90864C0.166739 5.01268 0.14663 5.12378 0.148565 5.2356C0.150499 5.34742 0.174439 5.45776 0.219017 5.56033C0.263595 5.66289 0.327938 5.75567 0.408373 5.83337L3.60837 9.03337C3.68584 9.11148 3.77801 9.17347 3.87956 9.21578C3.98111 9.25809 4.09003 9.27987 4.20004 9.27987C4.31005 9.27987 4.41897 9.25809 4.52052 9.21578C4.62207 9.17347 4.71424 9.11148 4.79171 9.03337L11.5917 2.23337C11.6763 2.15533 11.7438 2.06063 11.79 1.95521C11.8361 1.84979 11.86 1.73595 11.86 1.62087C11.86 1.50579 11.8361 1.39195 11.79 1.28653C11.7438 1.18112 11.6763 1.08641 11.5917 1.00837Z" fill="#3CBB41"/>
</svg>
