<svg width="11" height="11" viewBox="0 0 11 11" fill="none" xmlns="http://www.w3.org/2000/svg">
<path d="M6.38121 5.49999L10.3187 1.56874C10.4364 1.45105 10.5025 1.29143 10.5025 1.12499C10.5025 0.958555 10.4364 0.798934 10.3187 0.681244C10.201 0.563554 10.0414 0.497437 9.87496 0.497437C9.70852 0.497437 9.5489 0.563554 9.43121 0.681244L5.49996 4.61874L1.56871 0.681244C1.45102 0.563554 1.2914 0.497437 1.12496 0.497437C0.958523 0.497437 0.798902 0.563554 0.681212 0.681244C0.563522 0.798934 0.497405 0.958555 0.497405 1.12499C0.497405 1.29143 0.563522 1.45105 0.681212 1.56874L4.61871 5.49999L0.681212 9.43124C0.622632 9.48935 0.576135 9.55847 0.544405 9.63463C0.512674 9.7108 0.496338 9.79249 0.496338 9.87499C0.496338 9.9575 0.512674 10.0392 0.544405 10.1154C0.576135 10.1915 0.622632 10.2606 0.681212 10.3187C0.739314 10.3773 0.808439 10.4238 0.884601 10.4556C0.960763 10.4873 1.04245 10.5036 1.12496 10.5036C1.20747 10.5036 1.28916 10.4873 1.36532 10.4556C1.44148 10.4238 1.51061 10.3773 1.56871 10.3187L5.49996 6.38124L9.43121 10.3187C9.48931 10.3773 9.55844 10.4238 9.6346 10.4556C9.71076 10.4873 9.79245 10.5036 9.87496 10.5036C9.95747 10.5036 10.0392 10.4873 10.1153 10.4556C10.1915 10.4238 10.2606 10.3773 10.3187 10.3187C10.3773 10.2606 10.4238 10.1915 10.4555 10.1154C10.4873 10.0392 10.5036 9.9575 10.5036 9.87499C10.5036 9.79249 10.4873 9.7108 10.4555 9.63463C10.4238 9.55847 10.3773 9.48935 10.3187 9.43124L6.38121 5.49999Z" fill="#B2CFF0"/>
</svg>
