<svg width="8" height="12" viewBox="0 0 8 12" fill="none" xmlns="http://www.w3.org/2000/svg">
<path d="M1.66659 4.66667C1.40288 4.66667 1.14509 4.74486 0.925826 4.89137C0.70656 5.03788 0.535663 5.24612 0.434746 5.48976C0.33383 5.73339 0.307425 6.00148 0.358872 6.26012C0.410319 6.51876 0.537307 6.75634 0.723777 6.94281C0.910247 7.12928 1.14782 7.25627 1.40647 7.30771C1.66511 7.35916 1.9332 7.33276 2.17683 7.23184C2.42047 7.13092 2.6287 6.96002 2.77521 6.74076C2.92172 6.52149 2.99992 6.26371 2.99992 6C2.99992 5.64638 2.85944 5.30724 2.60939 5.05719C2.35935 4.80714 2.02021 4.66667 1.66659 4.66667ZM1.66659 9.33333C1.40288 9.33333 1.14509 9.41153 0.925826 9.55804C0.70656 9.70455 0.535663 9.91279 0.434746 10.1564C0.33383 10.4001 0.307425 10.6681 0.358872 10.9268C0.410319 11.1854 0.537307 11.423 0.723777 11.6095C0.910247 11.7959 1.14782 11.9229 1.40647 11.9744C1.66511 12.0258 1.9332 11.9994 2.17683 11.8985C2.42047 11.7976 2.6287 11.6267 2.77521 11.4074C2.92172 11.1882 2.99992 10.9304 2.99992 10.6667C2.99992 10.313 2.85944 9.97391 2.60939 9.72386C2.35935 9.47381 2.02021 9.33333 1.66659 9.33333ZM6.33325 2.66667C6.59696 2.66667 6.85475 2.58847 7.07401 2.44196C7.29328 2.29545 7.46417 2.08721 7.56509 1.84358C7.66601 1.59994 7.69241 1.33185 7.64097 1.07321C7.58952 0.814571 7.46253 0.576994 7.27606 0.390524C7.08959 0.204054 6.85201 0.0770662 6.59337 0.0256193C6.33473 -0.0258277 6.06664 0.000576754 5.82301 0.101494C5.57937 0.20241 5.37113 0.373307 5.22463 0.592573C5.07812 0.811838 4.99992 1.06962 4.99992 1.33333C4.99992 1.68695 5.1404 2.02609 5.39044 2.27614C5.64049 2.52619 5.97963 2.66667 6.33325 2.66667ZM1.66659 -3.94094e-07C1.40288 -3.94094e-07 1.14509 0.0781982 0.925826 0.224707C0.70656 0.371215 0.535663 0.579453 0.434746 0.823088C0.33383 1.06672 0.307425 1.33481 0.358872 1.59345C0.410319 1.85209 0.537307 2.08967 0.723777 2.27614C0.910247 2.46261 1.14782 2.5896 1.40647 2.64105C1.66511 2.69249 1.9332 2.66609 2.17683 2.56517C2.42047 2.46426 2.6287 2.29336 2.77521 2.07409C2.92172 1.85483 2.99992 1.59704 2.99992 1.33333C2.99992 0.979711 2.85944 0.640572 2.60939 0.390524C2.35935 0.140475 2.02021 -3.94094e-07 1.66659 -3.94094e-07ZM6.33325 9.33333C6.06954 9.33333 5.81176 9.41153 5.59249 9.55804C5.37323 9.70455 5.20233 9.91279 5.10141 10.1564C5.0005 10.4001 4.97409 10.6681 5.02554 10.9268C5.07699 11.1854 5.20397 11.423 5.39044 11.6095C5.57691 11.7959 5.81449 11.9229 6.07313 11.9744C6.33177 12.0258 6.59986 11.9994 6.8435 11.8985C7.08713 11.7976 7.29537 11.6267 7.44188 11.4074C7.58839 11.1882 7.66659 10.9304 7.66659 10.6667C7.66659 10.313 7.52611 9.97391 7.27606 9.72386C7.02601 9.47381 6.68687 9.33333 6.33325 9.33333ZM6.33325 4.66667C6.06954 4.66667 5.81176 4.74486 5.59249 4.89137C5.37323 5.03788 5.20233 5.24612 5.10141 5.48976C5.0005 5.73339 4.97409 6.00148 5.02554 6.26012C5.07699 6.51876 5.20397 6.75634 5.39044 6.94281C5.57691 7.12928 5.81449 7.25627 6.07313 7.30771C6.33177 7.35916 6.59986 7.33276 6.8435 7.23184C7.08713 7.13092 7.29537 6.96002 7.44188 6.74076C7.58839 6.52149 7.66659 6.26371 7.66659 6C7.66659 5.64638 7.52611 5.30724 7.27606 5.05719C7.02601 4.80714 6.68687 4.66667 6.33325 4.66667Z" fill="#A5A5A5"/>
</svg>
