<svg width="18" height="18" viewBox="0 0 18 18" fill="none" xmlns="http://www.w3.org/2000/svg">
<path d="M8.99984 15.6667H3.1665C2.94549 15.6667 2.73353 15.5789 2.57725 15.4226C2.42097 15.2663 2.33317 15.0543 2.33317 14.8333V3.16666C2.33317 2.94564 2.42097 2.73368 2.57725 2.5774C2.73353 2.42112 2.94549 2.33332 3.1665 2.33332H7.33317V4.83332C7.33317 5.49636 7.59656 6.13225 8.0654 6.60109C8.53424 7.06993 9.17013 7.33332 9.83317 7.33332H12.3332V8.16666C12.3332 8.38767 12.421 8.59963 12.5772 8.75591C12.7335 8.91219 12.9455 8.99999 13.1665 8.99999C13.3875 8.99999 13.5995 8.91219 13.7558 8.75591C13.912 8.59963 13.9998 8.38767 13.9998 8.16666V6.49999V6.44999C13.9912 6.37344 13.9744 6.29802 13.9498 6.22499V6.14999C13.9098 6.06431 13.8563 5.98554 13.7915 5.91666L8.7915 0.916656C8.72262 0.851837 8.64385 0.798391 8.55817 0.758323C8.5333 0.75479 8.50805 0.75479 8.48317 0.758323C8.39852 0.709774 8.30502 0.67861 8.20817 0.666656H3.1665C2.50346 0.666656 1.86758 0.930049 1.39874 1.39889C0.929896 1.86773 0.666504 2.50362 0.666504 3.16666V14.8333C0.666504 15.4964 0.929896 16.1322 1.39874 16.6011C1.86758 17.0699 2.50346 17.3333 3.1665 17.3333H8.99984C9.22085 17.3333 9.43281 17.2455 9.58909 17.0892C9.74537 16.933 9.83317 16.721 9.83317 16.5C9.83317 16.279 9.74537 16.067 9.58909 15.9107C9.43281 15.7545 9.22085 15.6667 8.99984 15.6667ZM8.99984 3.50832L11.1582 5.66666H9.83317C9.61216 5.66666 9.4002 5.57886 9.24392 5.42258C9.08764 5.2663 8.99984 5.05434 8.99984 4.83332V3.50832ZM4.83317 5.66666C4.61216 5.66666 4.4002 5.75445 4.24392 5.91073C4.08764 6.06701 3.99984 6.27898 3.99984 6.49999C3.99984 6.721 4.08764 6.93297 4.24392 7.08925C4.4002 7.24553 4.61216 7.33332 4.83317 7.33332H5.6665C5.88752 7.33332 6.09948 7.24553 6.25576 7.08925C6.41204 6.93297 6.49984 6.721 6.49984 6.49999C6.49984 6.27898 6.41204 6.06701 6.25576 5.91073C6.09948 5.75445 5.88752 5.66666 5.6665 5.66666H4.83317ZM17.0915 15.9083L16.1165 14.9417C16.4281 14.3977 16.5529 13.7666 16.4716 13.145C16.3903 12.5234 16.1075 11.9455 15.6665 11.5C15.2607 11.0797 14.7377 10.7914 14.1657 10.6726C13.5937 10.5538 12.9991 10.61 12.4595 10.834C11.9199 11.0579 11.4603 11.4392 11.1405 11.9281C10.8207 12.417 10.6555 12.9909 10.6665 13.575C10.6636 14.0776 10.7922 14.5723 11.0395 15.0099C11.2868 15.4476 11.6442 15.8129 12.0763 16.0698C12.5084 16.3267 13.0001 16.4662 13.5027 16.4744C14.0053 16.4826 14.5013 16.3593 14.9415 16.1167L15.9082 17.0917C15.9856 17.1698 16.0778 17.2318 16.1794 17.2741C16.2809 17.3164 16.3898 17.3382 16.4998 17.3382C16.6098 17.3382 16.7188 17.3164 16.8203 17.2741C16.9219 17.2318 17.014 17.1698 17.0915 17.0917C17.1696 17.0142 17.2316 16.922 17.2739 16.8205C17.3162 16.7189 17.338 16.61 17.338 16.5C17.338 16.39 17.3162 16.2811 17.2739 16.1795C17.2316 16.078 17.1696 15.9858 17.0915 15.9083ZM14.4498 14.45C14.2118 14.6738 13.8974 14.7984 13.5707 14.7984C13.2439 14.7984 12.9295 14.6738 12.6915 14.45C12.4621 14.2165 12.3334 13.9023 12.3332 13.575C12.3314 13.4106 12.363 13.2476 12.4261 13.0958C12.4891 12.944 12.5822 12.8065 12.6998 12.6917C12.922 12.4707 13.22 12.3426 13.5332 12.3333C13.7017 12.323 13.8705 12.3475 14.029 12.4055C14.1875 12.4635 14.3324 12.5536 14.4544 12.6702C14.5765 12.7868 14.6731 12.9273 14.7383 13.083C14.8035 13.2387 14.8358 13.4062 14.8332 13.575C14.8263 13.9059 14.6884 14.2206 14.4498 14.45ZM9.83317 8.99999H4.83317C4.61216 8.99999 4.4002 9.08779 4.24392 9.24407C4.08764 9.40035 3.99984 9.61231 3.99984 9.83332C3.99984 10.0543 4.08764 10.2663 4.24392 10.4226C4.4002 10.5789 4.61216 10.6667 4.83317 10.6667H9.83317C10.0542 10.6667 10.2661 10.5789 10.4224 10.4226C10.5787 10.2663 10.6665 10.0543 10.6665 9.83332C10.6665 9.61231 10.5787 9.40035 10.4224 9.24407C10.2661 9.08779 10.0542 8.99999 9.83317 8.99999ZM8.1665 14C8.38752 14 8.59948 13.9122 8.75576 13.7559C8.91204 13.5996 8.99984 13.3877 8.99984 13.1667C8.99984 12.9456 8.91204 12.7337 8.75576 12.5774C8.59948 12.4211 8.38752 12.3333 8.1665 12.3333H4.83317C4.61216 12.3333 4.4002 12.4211 4.24392 12.5774C4.08764 12.7337 3.99984 12.9456 3.99984 13.1667C3.99984 13.3877 4.08764 13.5996 4.24392 13.7559C4.4002 13.9122 4.61216 14 4.83317 14H8.1665Z" fill="#616161"/>
</svg>
