<svg width="19" height="16" viewBox="0 0 19 16" fill="none" xmlns="http://www.w3.org/2000/svg">
<path d="M18.4833 6.64165C18.4048 6.54497 18.3057 6.46709 18.1932 6.41373C18.0808 6.36037 17.9577 6.3329 17.8333 6.33332H16.1666V5.49999C16.1666 4.83695 15.9032 4.20106 15.4344 3.73222C14.9655 3.26338 14.3296 2.99999 13.6666 2.99999H8.43325L8.16658 2.16665C7.99371 1.67768 7.67304 1.25457 7.249 0.955955C6.82496 0.657337 6.31855 0.497989 5.79992 0.499988H2.83325C2.17021 0.499988 1.53433 0.76338 1.06548 1.23222C0.596644 1.70106 0.333252 2.33695 0.333252 2.99999V13C0.333252 13.663 0.596644 14.2989 1.06548 14.7678C1.53433 15.2366 2.17021 15.5 2.83325 15.5H14.8333C15.4009 15.4983 15.9511 15.3035 16.3934 14.9476C16.8356 14.5917 17.1436 14.0959 17.2666 13.5417L18.6666 7.34999C18.6919 7.22575 18.6886 7.09737 18.6568 6.97462C18.625 6.85188 18.5657 6.738 18.4833 6.64165ZM3.97492 13.1833C3.93258 13.3713 3.82641 13.5388 3.67447 13.6573C3.52253 13.7758 3.33422 13.838 3.14159 13.8333H2.83325C2.61224 13.8333 2.40028 13.7455 2.244 13.5892C2.08772 13.433 1.99992 13.221 1.99992 13V2.99999C1.99992 2.77897 2.08772 2.56701 2.244 2.41073C2.40028 2.25445 2.61224 2.16665 2.83325 2.16665H5.79992C5.98164 2.15717 6.16147 2.20743 6.31195 2.30975C6.46242 2.41207 6.57527 2.56084 6.63325 2.73332L7.08325 4.09999C7.13673 4.25894 7.23692 4.39806 7.37073 4.49916C7.50454 4.60026 7.66574 4.65864 7.83325 4.66665H13.6666C13.8876 4.66665 14.0996 4.75445 14.2558 4.91073C14.4121 5.06701 14.4999 5.27897 14.4999 5.49999V6.33332H6.16658C5.97395 6.32861 5.78564 6.39081 5.6337 6.50932C5.48176 6.62783 5.37559 6.79534 5.33325 6.98332L3.97492 13.1833ZM15.6416 13.1833C15.5993 13.3713 15.4931 13.5388 15.3411 13.6573C15.1892 13.7758 15.0009 13.838 14.8083 13.8333H5.50825C5.55129 13.7405 5.5821 13.6424 5.59992 13.5417L6.83325 7.99999H16.8333L15.6416 13.1833Z" fill="#585858"/>
</svg>
