<svg width="17" height="16" viewBox="0 0 17 16" fill="none" xmlns="http://www.w3.org/2000/svg">
<path d="M14.3334 2.58339H9.10008L8.83342 1.75006C8.66054 1.26108 8.33987 0.837979 7.91583 0.53936C7.49179 0.240741 6.98538 0.0813933 6.46675 0.0833926H2.66675C2.00371 0.0833926 1.36782 0.346785 0.898981 0.815626C0.43014 1.28447 0.166748 1.92035 0.166748 2.58339V13.4167C0.166748 14.0798 0.43014 14.7157 0.898981 15.1845C1.36782 15.6533 2.00371 15.9167 2.66675 15.9167H14.3334C14.9965 15.9167 15.6323 15.6533 16.1012 15.1845C16.57 14.7157 16.8334 14.0798 16.8334 13.4167V5.08339C16.8334 4.42035 16.57 3.78447 16.1012 3.31563C15.6323 2.84678 14.9965 2.58339 14.3334 2.58339ZM15.1667 13.4167C15.1667 13.6377 15.079 13.8497 14.9227 14.006C14.7664 14.1623 14.5544 14.2501 14.3334 14.2501H2.66675C2.44573 14.2501 2.23377 14.1623 2.07749 14.006C1.92121 13.8497 1.83341 13.6377 1.83341 13.4167V2.58339C1.83341 2.36238 1.92121 2.15042 2.07749 1.99414C2.23377 1.83786 2.44573 1.75006 2.66675 1.75006H6.46675C6.64145 1.74961 6.81188 1.80408 6.95394 1.90576C7.096 2.00745 7.20251 2.15121 7.25842 2.31673L7.70842 3.68339C7.76432 3.84891 7.87083 3.99267 8.01289 4.09436C8.15495 4.19604 8.32538 4.25051 8.50008 4.25006H14.3334C14.5544 4.25006 14.7664 4.33786 14.9227 4.49414C15.079 4.65042 15.1667 4.86238 15.1667 5.08339V13.4167Z" fill="#585858"/>
</svg>
