<svg width="10" height="10" viewBox="0 0 10 10" fill="none" xmlns="http://www.w3.org/2000/svg">
<path d="M6.36 3.395L4.215 5.545L3.39 4.72C3.34518 4.66766 3.29002 4.62515 3.22799 4.59514C3.16595 4.56513 3.09839 4.54826 3.02953 4.5456C2.96067 4.54294 2.892 4.55454 2.82784 4.57968C2.76368 4.60482 2.7054 4.64295 2.65668 4.69167C2.60795 4.7404 2.56982 4.79868 2.54468 4.86284C2.51955 4.927 2.50794 4.99567 2.5106 5.06453C2.51326 5.13339 2.53013 5.20095 2.56014 5.26299C2.59015 5.32502 2.63266 5.38018 2.685 5.425L3.86 6.605C3.90672 6.65134 3.96213 6.688 4.02305 6.71289C4.08397 6.73777 4.1492 6.75038 4.215 6.75C4.34617 6.74945 4.47187 6.69737 4.565 6.605L7.065 4.105C7.11187 4.05852 7.14906 4.00322 7.17445 3.94229C7.19983 3.88136 7.2129 3.81601 7.2129 3.75C7.2129 3.68399 7.19983 3.61864 7.17445 3.55771C7.14906 3.49678 7.11187 3.44148 7.065 3.395C6.97132 3.30187 6.8446 3.2496 6.7125 3.2496C6.58041 3.2496 6.45368 3.30187 6.36 3.395ZM5 0C4.0111 0 3.0444 0.293245 2.22215 0.842652C1.39991 1.39206 0.759043 2.17295 0.380605 3.08658C0.00216642 4.00021 -0.0968503 5.00555 0.0960759 5.97545C0.289002 6.94536 0.765206 7.83627 1.46447 8.53553C2.16373 9.2348 3.05465 9.711 4.02455 9.90393C4.99446 10.0969 5.99979 9.99784 6.91342 9.6194C7.82705 9.24096 8.60794 8.6001 9.15735 7.77785C9.70676 6.95561 10 5.98891 10 5C10 4.34339 9.87067 3.69321 9.6194 3.08658C9.36813 2.47995 8.99983 1.92876 8.53554 1.46447C8.07124 1.00017 7.52005 0.631876 6.91342 0.380602C6.30679 0.129329 5.65661 0 5 0ZM5 9C4.20888 9 3.43552 8.7654 2.77772 8.32588C2.11992 7.88635 1.60723 7.26164 1.30448 6.53073C1.00173 5.79983 0.92252 4.99556 1.07686 4.21964C1.2312 3.44371 1.61216 2.73098 2.17158 2.17157C2.73099 1.61216 3.44372 1.2312 4.21964 1.07686C4.99557 0.922518 5.79983 1.00173 6.53074 1.30448C7.26164 1.60723 7.88635 2.11992 8.32588 2.77772C8.76541 3.43552 9 4.20887 9 5C9 6.06087 8.57858 7.07828 7.82843 7.82843C7.07828 8.57857 6.06087 9 5 9Z" fill="#66A1E4"/>
</svg>
